solid gas_reedsensor_halter_v2
facet normal 6.202089599361297e-16 -5.773159728050824e-16 -1.0
  outer loop
    vertex 33.19244802044922 43.68680471872966 -8.000000000000007
    vertex 11.192448020449225 35.68700308298746 -8.000000000000018
    vertex -18.807352780827912 43.68680471872969 -8.000000000000039
  endloop
endfacet
facet normal 6.202089599361297e-16 -5.773159728050824e-16 -1.0
  outer loop
    vertex 11.192448020449225 35.68700308298746 -8.000000000000018
    vertex 33.19244802044922 43.68680471872966 -8.000000000000007
    vertex 33.19244802044924 35.687003082987445 -8.000000000000002
  endloop
endfacet
facet normal 6.202089599361297e-16 -5.773159728050824e-16 -1.0
  outer loop
    vertex -18.807352780827912 43.68680471872969 -8.000000000000039
    vertex 11.192448020449225 30.687003082987488 -8.000000000000014
    vertex -18.807352780827923 30.687003082987488 -8.000000000000034
  endloop
endfacet
facet normal 6.202089599361297e-16 -5.773159728050824e-16 -1.0
  outer loop
    vertex 11.192448020449225 30.687003082987488 -8.000000000000014
    vertex -18.807352780827912 43.68680471872969 -8.000000000000039
    vertex 11.192448020449225 35.68700308298746 -8.000000000000018
  endloop
endfacet
facet normal -6.202089599361297e-16 5.773159728050824e-16 1.0
  outer loop
    vertex 11.192448020449225 30.687003082987488 -7.000000000000015
    vertex -18.807352780827912 43.686804718729704 -7.000000000000039
    vertex -18.807352780827923 30.687003082987523 -7.000000000000034
  endloop
endfacet
facet normal -6.202089599361297e-16 5.773159728050824e-16 1.0
  outer loop
    vertex -18.807352780827912 43.686804718729704 -7.000000000000039
    vertex 11.192448020449225 30.687003082987488 -7.000000000000015
    vertex 11.192448020449225 35.68700308298746 -7.000000000000018
  endloop
endfacet
facet normal -6.202089599361297e-16 5.773159728050824e-16 1.0
  outer loop
    vertex -18.807352780827912 43.686804718729704 -7.000000000000039
    vertex 11.192448020449225 35.68700308298746 -7.000000000000018
    vertex 33.19244802044918 43.68680471872966 -7.000000000000007
  endloop
endfacet
facet normal -6.202089599361297e-16 5.773159728050824e-16 1.0
  outer loop
    vertex 33.19244802044918 43.68680471872966 -7.000000000000007
    vertex 11.192448020449225 35.68700308298746 -7.000000000000018
    vertex 33.1924480204492 35.687003082987445 -7.000000000000003
  endloop
endfacet
facet normal -8.265479708542708e-16 -1.0 5.773159728050818e-16
  outer loop
    vertex 33.19244802044924 35.687003082987445 -8.000000000000002
    vertex 11.192448020449225 35.68700308298746 -7.000000000000018
    vertex 11.192448020449225 35.68700308298746 -8.000000000000018
  endloop
endfacet
facet normal -8.265479708542708e-16 -1.0 5.773159728050818e-16
  outer loop
    vertex 11.192448020449225 35.68700308298746 -7.000000000000018
    vertex 33.19244802044924 35.687003082987445 -8.000000000000002
    vertex 33.1924480204492 35.687003082987445 -7.000000000000003
  endloop
endfacet
facet normal 1.0 -8.265479708542704e-16 6.202089599361301e-16
  outer loop
    vertex 33.19244802044922 43.68680471872966 -8.000000000000007
    vertex 33.1924480204492 35.687003082987445 -7.000000000000003
    vertex 33.19244802044924 35.687003082987445 -8.000000000000002
  endloop
endfacet
facet normal 1.0 -8.265479708542704e-16 6.202089599361301e-16
  outer loop
    vertex 33.1924480204492 35.687003082987445 -7.000000000000003
    vertex 33.19244802044922 43.68680471872966 -8.000000000000007
    vertex 33.19244802044918 43.68680471872966 -7.000000000000007
  endloop
endfacet
facet normal 8.265479708542708e-16 1.0 -5.773159728050818e-16
  outer loop
    vertex -18.807352780827912 43.686804718729704 -7.000000000000039
    vertex 33.19244802044922 43.68680471872966 -8.000000000000007
    vertex -18.807352780827912 43.68680471872969 -8.000000000000039
  endloop
endfacet
facet normal 8.265479708542708e-16 1.0 -5.773159728050818e-16
  outer loop
    vertex 33.19244802044922 43.68680471872966 -8.000000000000007
    vertex -18.807352780827912 43.686804718729704 -7.000000000000039
    vertex 33.19244802044918 43.68680471872966 -7.000000000000007
  endloop
endfacet
facet normal -1.0 8.265479708542704e-16 -6.202089599361301e-16
  outer loop
    vertex -18.807352780827923 30.687003082987523 -7.000000000000034
    vertex -18.807352780827912 43.68680471872969 -8.000000000000039
    vertex -18.807352780827923 30.687003082987488 -8.000000000000034
  endloop
endfacet
facet normal -1.0 8.265479708542704e-16 -6.202089599361301e-16
  outer loop
    vertex -18.807352780827912 43.68680471872969 -8.000000000000039
    vertex -18.807352780827923 30.687003082987523 -7.000000000000034
    vertex -18.807352780827912 43.686804718729704 -7.000000000000039
  endloop
endfacet
facet normal -8.265479708542708e-16 -1.0 5.773159728050818e-16
  outer loop
    vertex 11.192448020449225 30.687003082987488 -8.000000000000014
    vertex -18.807352780827923 30.687003082987523 -7.000000000000034
    vertex -18.807352780827923 30.687003082987488 -8.000000000000034
  endloop
endfacet
facet normal -8.265479708542708e-16 -1.0 5.773159728050818e-16
  outer loop
    vertex -18.807352780827923 30.687003082987523 -7.000000000000034
    vertex 11.192448020449225 30.687003082987488 -8.000000000000014
    vertex 11.192448020449225 30.687003082987488 -7.000000000000015
  endloop
endfacet
facet normal 1.0 -8.265479708542704e-16 6.202089599361301e-16
  outer loop
    vertex 11.192448020449225 35.68700308298746 -8.000000000000018
    vertex 11.192448020449225 30.687003082987488 -7.000000000000015
    vertex 11.192448020449225 30.687003082987488 -8.000000000000014
  endloop
endfacet
facet normal 1.0 -8.265479708542704e-16 6.202089599361301e-16
  outer loop
    vertex 11.192448020449225 30.687003082987488 -7.000000000000015
    vertex 11.192448020449225 35.68700308298746 -8.000000000000018
    vertex 11.192448020449225 35.68700308298746 -7.000000000000018
  endloop
endfacet
endsolid gas_reedsensor_halter_v2
